<svg xmlns="http://www.w3.org/2000/svg" width="24" height="24" viewBox="0 0 24 24"><g transform="translate(1.103 3.635)"><path d="M197.369,109.4l-5.05-2.763a.927.927,0,0,0-1.373.814v5.479a.926.926,0,0,0,1.367.817l5.05-2.715a.928.928,0,0,0,.006-1.631Zm-5.083,2.84v-4.095l3.774,2.065Zm0,0" transform="translate(-182.701 -102.017)" fill="#fff"/><path d="M22.17,3.963v-.01a5.046,5.046,0,0,0-.985-2.573A3.647,3.647,0,0,0,18.777.26L18.666.246l-.039,0C15.674.029,11.215,0,11.17,0h-.008c-.045,0-4.5.029-7.483.242l-.039,0-.1.013A3.555,3.555,0,0,0,1.142,1.414,5.288,5.288,0,0,0,.166,3.94l0,.023C.157,4.037,0,5.8,0,7.579V9.238c0,1.774.158,3.542.164,3.616v.011a5,5,0,0,0,.981,2.541,3.723,3.723,0,0,0,2.488,1.1c.091.01.169.019.222.028l.052.007c1.7.161,7.05.24,7.277.244H11.2c.045,0,4.5-.029,7.456-.242l.039,0,.125-.014A3.473,3.473,0,0,0,21.191,15.4a5.287,5.287,0,0,0,.976-2.526l0-.023c.007-.074.164-1.842.164-3.616V7.579c0-1.774-.158-3.542-.164-3.616ZM21.025,9.238c0,1.642-.145,3.334-.158,3.489a4.1,4.1,0,0,1-.642,1.8,2.16,2.16,0,0,1-1.545.711l-.139.016c-2.856.2-7.147.236-7.344.238-.222,0-5.489-.083-7.142-.236-.085-.014-.176-.024-.273-.035a2.457,2.457,0,0,1-1.674-.694L2.1,14.513a3.724,3.724,0,0,1-.629-1.782c-.01-.117-.159-1.829-.159-3.494V7.579c0-1.64.144-3.33.158-3.489a4.021,4.021,0,0,1,.642-1.8,2.266,2.266,0,0,1,1.577-.741l.107-.013c2.9-.206,7.219-.237,7.374-.238s4.475.032,7.347.238l.115.014a2.352,2.352,0,0,1,1.6.721l.005.006a3.784,3.784,0,0,1,.629,1.808c.01.111.159,1.826.159,3.495Zm0,0" transform="translate(0.001 0)" fill="#fff"/></g><rect width="24" height="24" fill="none"/></svg>